<mxfile host="app.diagrams.net" agent="Mozilla/5.0 (Windows NT 10.0; Win64; x64; rv:137.0) Gecko/20100101 Firefox/137.0" version="26.2.12">
  <diagram name="Page-1" id="mb9WRy8e2HVsGP2Ct_EL">
    <mxGraphModel dx="993" dy="631" grid="1" gridSize="10" guides="1" tooltips="1" connect="1" arrows="1" fold="1" page="1" pageScale="1" pageWidth="850" pageHeight="1100" math="0" shadow="0">
      <root>
        <mxCell id="0" />
        <mxCell id="1" parent="0" />
        <mxCell id="I15YfjlCdueFwQILE_Ks-6" style="edgeStyle=orthogonalEdgeStyle;rounded=0;orthogonalLoop=1;jettySize=auto;html=1;" edge="1" parent="1" source="I15YfjlCdueFwQILE_Ks-1" target="I15YfjlCdueFwQILE_Ks-2">
          <mxGeometry relative="1" as="geometry" />
        </mxCell>
        <mxCell id="I15YfjlCdueFwQILE_Ks-1" value="&lt;b&gt;CloudWatch Events&lt;/b&gt;" style="sketch=0;points=[[0,0,0],[0.25,0,0],[0.5,0,0],[0.75,0,0],[1,0,0],[0,1,0],[0.25,1,0],[0.5,1,0],[0.75,1,0],[1,1,0],[0,0.25,0],[0,0.5,0],[0,0.75,0],[1,0.25,0],[1,0.5,0],[1,0.75,0]];points=[[0,0,0],[0.25,0,0],[0.5,0,0],[0.75,0,0],[1,0,0],[0,1,0],[0.25,1,0],[0.5,1,0],[0.75,1,0],[1,1,0],[0,0.25,0],[0,0.5,0],[0,0.75,0],[1,0.25,0],[1,0.5,0],[1,0.75,0]];outlineConnect=0;fontColor=#232F3E;fillColor=#E7157B;strokeColor=#ffffff;dashed=0;verticalLabelPosition=bottom;verticalAlign=top;align=center;html=1;fontSize=12;fontStyle=0;aspect=fixed;shape=mxgraph.aws4.resourceIcon;resIcon=mxgraph.aws4.cloudwatch_2;" vertex="1" parent="1">
          <mxGeometry x="40" y="80" width="78" height="78" as="geometry" />
        </mxCell>
        <mxCell id="I15YfjlCdueFwQILE_Ks-8" style="edgeStyle=orthogonalEdgeStyle;rounded=0;orthogonalLoop=1;jettySize=auto;html=1;" edge="1" parent="1" source="I15YfjlCdueFwQILE_Ks-2" target="I15YfjlCdueFwQILE_Ks-7">
          <mxGeometry relative="1" as="geometry" />
        </mxCell>
        <mxCell id="I15YfjlCdueFwQILE_Ks-20" value="Trigger function" style="edgeLabel;html=1;align=center;verticalAlign=middle;resizable=0;points=[];" vertex="1" connectable="0" parent="I15YfjlCdueFwQILE_Ks-8">
          <mxGeometry x="-0.4331" y="-3" relative="1" as="geometry">
            <mxPoint x="20" y="-3" as="offset" />
          </mxGeometry>
        </mxCell>
        <mxCell id="I15YfjlCdueFwQILE_Ks-2" value="&lt;b&gt;Scheduled Event&lt;/b&gt;" style="sketch=0;outlineConnect=0;fontColor=#232F3E;gradientColor=none;fillColor=#E7157B;strokeColor=none;dashed=0;verticalLabelPosition=bottom;verticalAlign=top;align=center;html=1;fontSize=12;fontStyle=0;aspect=fixed;pointerEvents=1;shape=mxgraph.aws4.event_time_based;" vertex="1" parent="1">
          <mxGeometry x="211" y="89" width="60" height="60" as="geometry" />
        </mxCell>
        <mxCell id="I15YfjlCdueFwQILE_Ks-17" style="edgeStyle=orthogonalEdgeStyle;rounded=0;orthogonalLoop=1;jettySize=auto;html=1;" edge="1" parent="1" source="I15YfjlCdueFwQILE_Ks-7" target="I15YfjlCdueFwQILE_Ks-10">
          <mxGeometry relative="1" as="geometry">
            <Array as="points">
              <mxPoint x="520" y="100" />
              <mxPoint x="520" y="55" />
            </Array>
          </mxGeometry>
        </mxCell>
        <mxCell id="I15YfjlCdueFwQILE_Ks-19" value="Query for consents&lt;div&gt;past expiryTime&lt;/div&gt;" style="edgeLabel;html=1;align=center;verticalAlign=middle;resizable=0;points=[];" vertex="1" connectable="0" parent="I15YfjlCdueFwQILE_Ks-17">
          <mxGeometry x="0.0064" y="3" relative="1" as="geometry">
            <mxPoint x="2" y="1" as="offset" />
          </mxGeometry>
        </mxCell>
        <mxCell id="I15YfjlCdueFwQILE_Ks-21" style="edgeStyle=orthogonalEdgeStyle;rounded=0;orthogonalLoop=1;jettySize=auto;html=1;" edge="1" parent="1" source="I15YfjlCdueFwQILE_Ks-7" target="I15YfjlCdueFwQILE_Ks-9">
          <mxGeometry relative="1" as="geometry">
            <Array as="points">
              <mxPoint x="610" y="140" />
              <mxPoint x="610" y="140" />
            </Array>
          </mxGeometry>
        </mxCell>
        <mxCell id="I15YfjlCdueFwQILE_Ks-22" value="&lt;div&gt;Update consent status for&lt;/div&gt;&lt;div&gt;active consents past expiryTime&lt;/div&gt;" style="edgeLabel;html=1;align=center;verticalAlign=middle;resizable=0;points=[];" vertex="1" connectable="0" parent="I15YfjlCdueFwQILE_Ks-21">
          <mxGeometry x="-0.0922" y="4" relative="1" as="geometry">
            <mxPoint x="14" y="19" as="offset" />
          </mxGeometry>
        </mxCell>
        <mxCell id="I15YfjlCdueFwQILE_Ks-7" value="&lt;div&gt;&lt;b&gt;ConsentAutoExpireProcessor&lt;/b&gt;&lt;/div&gt;&lt;div&gt;(Lambda)&lt;/div&gt;" style="outlineConnect=0;fontColor=#232F3E;gradientColor=#F78E04;gradientDirection=north;fillColor=#D05C17;strokeColor=#ffffff;dashed=0;verticalLabelPosition=bottom;verticalAlign=top;align=center;html=1;fontSize=12;fontStyle=0;aspect=fixed;shape=mxgraph.aws4.resourceIcon;resIcon=mxgraph.aws4.lambda;labelBackgroundColor=#ffffff;spacingTop=3;" vertex="1" parent="1">
          <mxGeometry x="390" y="80" width="78" height="78" as="geometry" />
        </mxCell>
        <mxCell id="I15YfjlCdueFwQILE_Ks-9" value="&lt;font&gt;&lt;b&gt;Consent DB&lt;/b&gt;&lt;br&gt;&lt;/font&gt;&lt;div&gt;&lt;font&gt;(DynamoDB)&lt;/font&gt;&lt;/div&gt;" style="outlineConnect=0;fontColor=#232F3E;gradientColor=#4D72F3;gradientDirection=north;fillColor=#3334B9;strokeColor=#ffffff;dashed=0;verticalLabelPosition=bottom;verticalAlign=top;align=center;html=1;fontSize=12;fontStyle=0;aspect=fixed;shape=mxgraph.aws4.resourceIcon;resIcon=mxgraph.aws4.dynamodb;labelBackgroundColor=#ffffff;spacingTop=5;" vertex="1" parent="1">
          <mxGeometry x="750.0000000000002" y="80" width="78" height="78" as="geometry" />
        </mxCell>
        <mxCell id="I15YfjlCdueFwQILE_Ks-18" style="edgeStyle=orthogonalEdgeStyle;rounded=0;orthogonalLoop=1;jettySize=auto;html=1;" edge="1" parent="1" source="I15YfjlCdueFwQILE_Ks-10" target="I15YfjlCdueFwQILE_Ks-9">
          <mxGeometry relative="1" as="geometry">
            <Array as="points">
              <mxPoint x="710" y="55" />
              <mxPoint x="710" y="100" />
            </Array>
          </mxGeometry>
        </mxCell>
        <mxCell id="I15YfjlCdueFwQILE_Ks-10" value="&lt;font&gt;&lt;b&gt;ActiveConsentsWithExpiryTime&lt;/b&gt;&lt;/font&gt;&lt;div&gt;&lt;font&gt;(DynamoDB GSI)&lt;/font&gt;&lt;/div&gt;" style="sketch=0;outlineConnect=0;fontColor=#232F3E;gradientColor=none;strokeColor=#232F3E;fillColor=#ffffff;dashed=0;verticalLabelPosition=bottom;verticalAlign=top;align=center;html=1;fontSize=12;fontStyle=0;aspect=fixed;shape=mxgraph.aws4.resourceIcon;resIcon=mxgraph.aws4.global_secondary_index;" vertex="1" parent="1">
          <mxGeometry x="580" y="20" width="69" height="69" as="geometry" />
        </mxCell>
      </root>
    </mxGraphModel>
  </diagram>
</mxfile>
